HIERARCHY
ROOT Hips
{
	OFFSET 0.000000 0.000000 0.000000
	CHANNELS 6 Xposition Yposition Zposition Zrotation Yrotation Xrotation 
	JOINT LowerBack
	{
		OFFSET 0.000000 0.000000 0.000000
		CHANNELS 3 Zrotation Yrotation Xrotation
		JOINT Spine
		{
			OFFSET 0.028270 2.035590 -0.193380
			CHANNELS 3 Zrotation Yrotation Xrotation
			JOINT Spine1
			{
				OFFSET 0.056720 2.048850 -0.042750
				CHANNELS 3 Zrotation Yrotation Xrotation
				JOINT Neck
				{
					OFFSET 0.000000 0.000000 0.000000
					CHANNELS 3 Zrotation Yrotation Xrotation
					JOINT Neck1
					{
						OFFSET -0.054170 1.746240 0.172020
						CHANNELS 3 Zrotation Yrotation Xrotation
						JOINT Head
						{
							OFFSET 0.104070 1.761360 -0.123970
							CHANNELS 3 Zrotation Yrotation Xrotation
							End Site
							{
								OFFSET 0.000000 0.000000 0.000000
							}
						}
					}
				}
				JOINT LeftShoulder
				{
					OFFSET 0.000000 0.000000 0.000000
					CHANNELS 3 Zrotation Yrotation Xrotation
					JOINT LeftArm
					{
						OFFSET 3.362410 1.200890 -0.311210
						CHANNELS 3 Zrotation Yrotation Xrotation
						JOINT LeftForeArm
						{
							OFFSET 4.983000 -0.000000 -0.000000
							CHANNELS 3 Zrotation Yrotation Xrotation
							JOINT LeftHand
							{
								OFFSET 3.483560 -0.000000 -0.000000
								CHANNELS 3 Zrotation Yrotation Xrotation
								JOINT LeftFingerBase
								{
									OFFSET 0.000000 0.000000 0.000000
									CHANNELS 3 Zrotation Yrotation Xrotation
									JOINT LeftHandIndex1
									{
										OFFSET 0.715260 -0.000000 -0.000000
										CHANNELS 3 Zrotation Yrotation Xrotation
										End Site
										{
											OFFSET 0.000000 0.000000 0.000000
										}
									}
								}
								JOINT LThumb
								{
									OFFSET 0.000000 0.000000 0.000000
									CHANNELS 3 Zrotation Yrotation Xrotation
									End Site
									{
										OFFSET 0.000000 0.000000 0.000000
									}
								}
							}
						}
					}
				}
				JOINT RightShoulder
				{
					OFFSET 0.000000 0.000000 0.000000
					CHANNELS 3 Zrotation Yrotation Xrotation
					JOINT RightArm
					{
						OFFSET -3.136600 1.374050 -0.404650
						CHANNELS 3 Zrotation Yrotation Xrotation
						JOINT RightForeArm
						{
							OFFSET -5.241900 -0.000000 -0.000000
							CHANNELS 3 Zrotation Yrotation Xrotation
							JOINT RightHand
							{
								OFFSET -3.444170 -0.000000 -0.000000
								CHANNELS 3 Zrotation Yrotation Xrotation
								JOINT RightFingerBase
								{
									OFFSET 0.000000 0.000000 0.000000
									CHANNELS 3 Zrotation Yrotation Xrotation
									JOINT RightHandIndex1
									{
										OFFSET -0.622530 -0.000000 -0.000000
										CHANNELS 3 Zrotation Yrotation Xrotation
										End Site
										{
											OFFSET 0.000000 0.000000 0.000000
										}
									}
								}
								JOINT RThumb
								{
									OFFSET 0.000000 0.000000 0.000000
									CHANNELS 3 Zrotation Yrotation Xrotation
									End Site
									{
										OFFSET 0.000000 0.000000 0.000000
									}
								}
							}
						}
					}
				}
			}
		}
	}
}
}
MOTION
Frames: 11
Frame Time: 0.008333
1.523729 17.544235 0.583127 27.606121 86.236287 50.345993 1.972012 -0.418702 1.072642 -0.433945 -0.571546 -2.636297 -6.027553 -0.642998 0.975443 7.708652 -0.391143 -3.924480 -3.521088 -0.293940 0.840675 0.000000 0.000000 0.000000 -2.345097 5.804722 3.246826 -47.376746 8.209514 25.841648 -4.037020 -37.358358 -0.026494 -11.958391 3.080020 -0.328711 -0.134931 -0.095706 -0.000000 0.000000 0.000000 0.000000 0.000000 0.000000 0.000000 13.684712 2.508368 1.298986 59.440119 30.862165 16.513643 2.787141 39.982658 0.023628 5.727661 9.939421 0.508953 0.010310 -0.209297 0.000000 0.000000 0.000000 0.000000 0.000000 0.000000 0.000000 
1.716823 17.556019 0.601191 24.672647 85.911419 47.321679 1.567352 -0.201910 1.109908 -0.501893 -0.326722 -2.626011 -5.921337 -0.396253 0.992097 7.478688 -0.414942 -3.948072 -3.438292 -0.288488 0.833989 0.000000 0.000000 0.000000 -2.539340 6.294529 3.202146 -47.324770 8.937339 25.571120 -4.068724 -37.131302 -0.027696 -11.987972 3.111121 -0.333350 -0.135555 -0.100391 -0.000000 0.000000 0.000000 0.000000 0.000000 0.000000 0.000000 13.121391 2.709254 1.282629 58.715791 31.799929 17.612514 2.660251 41.869080 0.023339 5.515183 9.965193 0.492055 0.007512 -0.219351 0.000000 0.000000 0.000000 0.000000 0.000000 0.000000 0.000000 
1.910660 17.560589 0.617793 22.075112 85.613351 44.632361 1.194990 0.002409 1.135567 -0.561992 -0.096658 -2.616718 -5.812696 -0.164126 1.012536 7.243264 -0.453064 -3.977286 -3.349801 -0.282587 0.826372 0.000000 0.000000 0.000000 -2.725213 6.795225 3.155756 -47.251476 9.681550 25.297262 -4.095440 -36.993009 -0.028856 -12.025230 3.139787 -0.337885 -0.135853 -0.104912 -0.000000 0.000000 0.000000 0.000000 0.000000 0.000000 0.000000 12.527101 2.885066 1.260911 57.945064 32.737211 18.557847 2.527668 43.735894 0.022894 5.267223 9.969830 0.470752 0.004916 -0.229739 0.000000 0.000000 0.000000 0.000000 0.000000 0.000000 0.000000 
2.105338 17.557936 0.632697 19.651782 85.339040 42.115219 0.857739 0.194875 1.152471 -0.613955 0.119185 -2.607700 -5.701917 0.053939 1.036932 7.002272 -0.503944 -4.012560 -3.256335 -0.276261 0.817632 0.000000 0.000000 0.000000 -2.905105 7.311232 3.107806 -47.162146 10.438024 25.009475 -4.118006 -36.932793 -0.029975 -12.070829 3.166646 -0.342421 -0.135895 -0.109243 -0.000000 0.000000 0.000000 0.000000 0.000000 0.000000 0.000000 11.904955 3.036760 1.233584 57.128018 33.675254 19.357632 2.390788 45.573759 0.022296 4.994416 9.953147 0.446347 0.002455 -0.240342 -0.000000 0.000000 0.000000 0.000000 0.000000 0.000000 0.000000 
2.300925 17.548164 0.645668 17.292210 85.084974 39.658063 0.559157 0.375998 1.163376 -0.657298 0.321200 -2.598567 -5.589233 0.258322 1.064280 6.754899 -0.564754 -4.053178 -3.158478 -0.269542 0.807915 0.000000 0.000000 0.000000 -3.083340 7.841849 3.058524 -47.060593 11.209694 24.691910 -4.137132 -36.943783 -0.031061 -12.125340 3.193911 -0.347353 -0.135746 -0.113368 -0.000000 0.000000 0.000000 0.000000 0.000000 0.000000 0.000000 11.256230 3.166734 1.200705 56.265130 34.610599 20.019744 2.250943 47.376496 0.021558 4.709056 9.916550 0.419942 0.000024 -0.251058 -0.000000 0.000000 0.000000 0.000000 0.000000 0.000000 0.000000 
2.497599 17.531355 0.656498 14.913073 84.847151 37.176471 0.302628 0.546359 1.171008 -0.691511 0.509864 -2.587958 -5.474583 0.449581 1.097250 6.500949 -0.636795 -4.102242 -3.056738 -0.262404 0.796259 0.000000 0.000000 0.000000 -3.261776 8.403238 3.008127 -46.950825 11.972461 24.344235 -4.153902 -37.006782 -0.032096 -12.186964 3.220259 -0.352383 -0.135510 -0.117210 -0.000000 0.000000 0.000000 0.000000 0.000000 0.000000 0.000000 10.583594 3.273197 1.161103 55.355270 35.547981 20.558761 2.109115 49.137037 0.020683 4.420136 9.863160 0.392732 -0.002482 -0.261765 -0.000000 0.000000 0.000000 0.000000 0.000000 0.000000 0.000000 
2.695545 17.507710 0.665102 12.462396 84.620871 34.617004 0.090479 0.706883 1.176751 -0.716403 0.686021 -2.576330 -5.358599 0.628481 1.132767 6.240140 -0.715045 -4.156989 -2.951681 -0.254914 0.783432 0.000000 0.000000 0.000000 -3.445561 8.985313 2.956946 -46.832738 12.742469 23.946829 -4.168680 -37.122882 -0.033103 -12.256854 3.250461 -0.358110 -0.135239 -0.120796 -0.000000 0.000000 0.000000 0.000000 0.000000 0.000000 0.000000 9.888210 3.361507 1.115592 54.399722 36.477029 20.980484 1.966467 50.854172 0.019703 4.140699 9.795046 0.366119 -0.005216 -0.272394 -0.000000 0.000000 0.000000 0.000000 0.000000 0.000000 0.000000 
2.894975 17.477410 0.671420 9.896368 84.401108 31.934985 -0.075847 0.858709 1.182508 -0.731787 0.850816 -2.562116 -5.241037 0.796260 1.174934 5.973328 -0.802436 -4.221684 -2.843323 -0.247000 0.768146 0.000000 0.000000 0.000000 -3.632023 9.611378 2.905345 -46.709831 13.479767 23.513360 -4.182487 -37.266143 -0.034043 -12.330006 3.280533 -0.363833 -0.135030 -0.124013 -0.000000 0.000000 0.000000 0.000000 0.000000 0.000000 0.000000 9.171818 3.428625 1.061887 53.399360 37.400610 21.299004 1.823387 52.524289 0.018620 3.875733 9.714912 0.340603 -0.008288 -0.282843 -0.000000 0.000000 0.000000 0.000000 0.000000 0.000000 0.000000 
3.096086 17.440666 0.675606 7.190186 84.182553 29.104624 -0.196209 1.003247 1.189564 -0.737739 1.005731 -2.544788 -5.122048 0.954387 1.224596 5.701779 -0.897863 -4.297300 -2.731541 -0.238627 0.750094 0.000000 0.000000 0.000000 -3.817817 10.290405 2.854098 -46.583735 14.165184 23.050580 -4.195915 -37.421697 -0.034898 -12.403676 3.310035 -0.369553 -0.134936 -0.126796 -0.000000 0.000000 0.000000 0.000000 0.000000 0.000000 0.000000 8.434845 3.476167 0.998597 52.357763 38.311587 21.520771 1.680404 54.148272 0.017466 3.633974 9.624917 0.317183 -0.011863 -0.293054 -0.000000 0.000000 0.000000 0.000000 0.000000 0.000000 0.000000 
3.299147 17.397891 0.677933 4.392015 83.961265 26.173271 -0.276666 1.141488 1.196439 -0.735871 1.152112 -2.527454 -5.004225 1.103900 1.271620 5.429337 -0.995379 -4.373934 -2.617694 -0.230044 0.732180 0.000000 0.000000 0.000000 -4.011737 10.969748 2.802863 -46.441507 14.873606 22.525653 -4.207651 -37.628158 -0.035762 -12.484189 3.353229 -0.376970 -0.134890 -0.129386 -0.000000 0.000000 0.000000 0.000000 0.000000 0.000000 0.000000 7.686196 3.511191 0.931073 51.275024 39.187428 21.649204 1.539374 55.731984 0.016290 3.422977 9.526834 0.296458 -0.015975 -0.303053 0.000000 0.000000 0.000000 0.000000 0.000000 0.000000 0.000000 
3.504276 17.349317 0.678600 1.474840 83.733209 23.110560 -0.317287 1.275288 1.208752 -0.725782 1.292042 -2.506099 -4.885911 1.247096 1.327159 5.157833 -1.102667 -4.462532 -2.500400 -0.220974 0.711144 0.000000 0.000000 0.000000 -4.194460 11.710606 2.753371 -46.295257 15.495154 21.999475 -4.219418 -37.824021 -0.036504 -12.558952 3.394338 -0.383982 -0.134990 -0.131460 -0.000000 0.000000 0.000000 0.000000 0.000000 0.000000 0.000000 6.922963 3.525867 0.852299 50.157354 40.034481 21.692438 1.399554 57.275196 0.015084 3.243574 9.422152 0.278729 -0.020795 -0.312753 -0.000000 0.000000 0.000000 0.000000 0.000000 0.000000 0.000000 
